<?xml version="1.0" encoding="utf-8"?>
<!-- Generator: Adobe Illustrator 24.0.1, SVG Export Plug-In . SVG Version: 6.00 Build 0)  -->
<svg version="1.1" id="Group_522" xmlns="http://www.w3.org/2000/svg" xmlns:xlink="http://www.w3.org/1999/xlink" x="0px" y="0px"
	 viewBox="0 0 19 20" style="enable-background:new 0 0 19 20;" xml:space="preserve">
<style type="text/css">
	.st0{fill:#2B2B2B;}
</style>
<g>
	<path class="st0" d="M17.5,2H16V0h-1v2H4V0H3v2H1.5C1.1,2,0.7,2.2,0.4,2.4C0.2,2.7,0,3.1,0,3.5V5v1v12.5C0,19.3,0.7,20,1.5,20h16
		c0.4,0,0.8-0.2,1.1-0.4c0.3-0.3,0.4-0.7,0.4-1.1v-15C19,2.7,18.3,2,17.5,2z M1,3.5c0-0.1,0-0.3,0.1-0.3C1.2,3.1,1.3,3,1.5,3h16
		C17.7,3,18,3.2,18,3.5V5H1V3.5z M17.9,18.8c-0.1,0.1-0.2,0.2-0.4,0.2h-16C1.2,19,1,18.8,1,18.5V6h17v12.5
		C18,18.6,18,18.7,17.9,18.8z"/>
	<path class="st0" d="M15,16h-3v1h3.5c0.3,0,0.5-0.2,0.5-0.5V13h-1V16z"/>
</g>
</svg>
