<svg xmlns="http://www.w3.org/2000/svg" viewBox="0 0 12.53 12.53"><defs><style>.cls-1{fill:#2b2b2b;fill-rule:evenodd;}</style></defs><title>Asset 1</title><g id="Layer_2" data-name="Layer 2"><g id="Layer_1-2" data-name="Layer 1"><path class="cls-1" d="M1.79,10.23,3,8.93,2.08,6.46,1.4,6a.13.13,0,0,1-.06-.14l.22-1.73A.15.15,0,0,1,1.67,4l2.7-.66.37-1.92a.15.15,0,0,1,.13-.12l.82-.09a.15.15,0,0,1,.16.13v0l0,.61.45-.23L6.38.31v0H6.26A6.25,6.25,0,0,0,5.1.4,5.82,5.82,0,0,0,4,.74H4A5.91,5.91,0,0,0,2,2H2A6,6,0,0,0,1.29,3,6.35,6.35,0,0,0,.74,4h0A5.82,5.82,0,0,0,.4,5.1,6.25,6.25,0,0,0,.29,6.26,6.36,6.36,0,0,0,.4,7.43,6,6,0,0,0,.74,8.55h0a6.25,6.25,0,0,0,.55,1,5.34,5.34,0,0,0,.5.65ZM6.67.3a6.31,6.31,0,0,1,.76.1A5.73,5.73,0,0,1,8.54.74h0a6.35,6.35,0,0,1,1,.55,6,6,0,0,1,.91.75h0l.15.16L8.83,2.11h0a.14.14,0,0,0-.12.16l.15.83L7.93,4h0a.23.23,0,0,0,0,.1l0,1.09L7,6.27s0,.05,0,.08a.15.15,0,0,0,.13.16l1.18.13a.14.14,0,0,0,.14-.07L8.73,6l.61.5h0a.15.15,0,0,0,.09,0h1v0l-1.72.52h0l-1.51.5h0a.14.14,0,0,0-.09.08L6.34,9.45h0a.15.15,0,0,0,.07.19l2.32,1v1.06l-.17.07h0a6,6,0,0,1-1.12.34,6.45,6.45,0,0,1-1.17.11,6.25,6.25,0,0,1-1.16-.11A5.82,5.82,0,0,1,4,11.79a6.35,6.35,0,0,1-1-.55A6,6,0,0,1,2,10.49L2,10.44,3.3,9.06a.16.16,0,0,0,0-.16l-1-2.59a.18.18,0,0,0-.05-.07h0l-.65-.42.2-1.54,2.69-.66a.14.14,0,0,0,.11-.11h0L5,1.6l.55-.06,0,.7a.15.15,0,0,0,.14.15.09.09,0,0,0,.07,0h0L6.46,2a.13.13,0,0,0,.08-.12h0L6.67.34v0ZM9,11.58c.19-.11.39-.22.57-.34a6,6,0,0,0,.91-.75h0a6,6,0,0,0,.75-.91,6.35,6.35,0,0,0,.55-1h0a5.73,5.73,0,0,0,.34-1.11,6.36,6.36,0,0,0,.11-1.17,6.25,6.25,0,0,0-.11-1.16A6.63,6.63,0,0,0,11.79,4a6,6,0,0,0-.55-1,5.3,5.3,0,0,0-.34-.45L9,2.4l.12.73h0a.11.11,0,0,1,0,.12l-.89.91,0,1.09a.16.16,0,0,1,0,.09l-.75.91.83.09.38-.6s0,0,0,0a.16.16,0,0,1,.21,0l.69.58h1a.15.15,0,0,1,.14.13l0,.28a.14.14,0,0,1-.1.16L8.77,7.4h0l-1.45.47L6.66,9.43l2.28,1h0a.16.16,0,0,1,.08.14v1ZM9.74,1.05a6.46,6.46,0,0,1,.95.78h0a5.48,5.48,0,0,1,.78,1,5.62,5.62,0,0,1,.58,1.08A5.87,5.87,0,0,1,12.41,5a6.31,6.31,0,0,1,0,2.45,6.48,6.48,0,0,1-.35,1.16h0a5.62,5.62,0,0,1-.58,1.08,5.88,5.88,0,0,1-.78.95h0a5.88,5.88,0,0,1-.95.78,6.56,6.56,0,0,1-.81.47h0l-.25.11h0a5.87,5.87,0,0,1-1.17.36,6.31,6.31,0,0,1-2.45,0,5.87,5.87,0,0,1-1.17-.36,5.62,5.62,0,0,1-1.08-.58,6,6,0,0,1-1-.78,6.46,6.46,0,0,1-.78-.95A6.42,6.42,0,0,1,.48,8.67h0A6.58,6.58,0,0,1,.12,7.49,6.31,6.31,0,0,1,.12,5,6.34,6.34,0,0,1,.47,3.87h0a7,7,0,0,1,.58-1.08,6.67,6.67,0,0,1,.78-1h0a6.55,6.55,0,0,1,1-.78A7,7,0,0,1,3.87.47h0A6.58,6.58,0,0,1,5,.12a6.31,6.31,0,0,1,2.45,0A6.48,6.48,0,0,1,8.65.47h0a7,7,0,0,1,1.08.58Zm2,7.49A.14.14,0,0,1,12,8.47Z"/></g></g></svg>