<svg xmlns="http://www.w3.org/2000/svg" viewBox="0 0 16.88 16.88"><defs><style>.cls-1{fill:#757576;}</style></defs><title>external</title><g id="Layer_2" data-name="Layer 2"><g id="Layer_1-2" data-name="Layer 1"><path class="cls-1" d="M16.74.16h0A.53.53,0,0,0,16.38,0h-6a.5.5,0,0,0-.5.5.5.5,0,0,0,.5.5H15.2L7.35,8.85a.5.5,0,0,0,0,.71.48.48,0,0,0,.7,0l7.83-7.83V6.56a.5.5,0,0,0,.5.5.5.5,0,0,0,.5-.5v-6A.51.51,0,0,0,16.74.16Z"/><path class="cls-1" d="M14.87,8.7a.5.5,0,0,0-.5.5v6.68H1V2.5H7.68a.5.5,0,0,0,.5-.5.5.5,0,0,0-.5-.5H.5A.5.5,0,0,0,0,2V16.38a.5.5,0,0,0,.5.5H14.87a.5.5,0,0,0,.5-.5V9.2A.5.5,0,0,0,14.87,8.7Z"/></g></g></svg>