<?xml version="1.0" encoding="utf-8"?>
<!-- Generator: Adobe Illustrator 24.0.3, SVG Export Plug-In . SVG Version: 6.00 Build 0)  -->
<svg version="1.1" id="Layer_1" xmlns="http://www.w3.org/2000/svg" xmlns:xlink="http://www.w3.org/1999/xlink" x="0px" y="0px"
	 viewBox="0 0 108.8 128.7" style="enable-background:new 0 0 108.8 128.7;" xml:space="preserve">
<style type="text/css">
	.st0{fill:#2B2B2B;}
	.st1{fill:#A4A3A4;}
</style>
<title>lock_face</title>
<g id="Layer_2_1_">
	<g id="Layer_1-2">
		<g id="Group_1513">
			<g id="Line_24">
				<circle class="st0" cx="38.4" cy="86.3" r="5.2"/>
				<circle class="st0" cx="70.4" cy="86.3" r="5.2"/>
			</g>
			<path class="st1" d="M106.8,61.4h-8v-17C98.8,19.9,78.9,0,54.4,0S10,19.9,10,44.4v17H2c-1.1,0-2,0.9-2,2v63.4c0,1.1,0.9,2,2,2
				h104.8c1.1,0,2-0.9,2-2V63.4C108.8,62.3,107.9,61.4,106.8,61.4z M14,44.4C14,22.1,32.1,4,54.4,4s40.4,18.1,40.4,40.4v17h-9.6
				V44.2c-0.3-17-14.3-30.5-31.3-30.2C37.3,14.3,24,27.6,23.7,44.2v17.2H14V44.4z M81.1,61.4H27.7V44.2C28,29.4,40.2,17.7,54.9,18
				c14.4,0.3,25.9,11.8,26.2,26.2L81.1,61.4z M104.8,124.7H4v-4.9h21.7c1.1,0,2-0.9,2-2s-0.9-2-2-2H4V111h9.9c1.1,0,2-0.9,2-2
				s-0.9-2-2-2H4V65.4h100.8V124.7z"/>
			<g id="Line_25_1_">
				<path class="st0" d="M40.2,101.9h28.5c1.4,0,2.5,1.1,2.5,2.5s-1.1,2.5-2.5,2.5H40.2c-1.4,0-2.5-1.1-2.5-2.5
					S38.8,101.9,40.2,101.9z"/>
			</g>
		</g>
	</g>
</g>
</svg>
