<svg xmlns="http://www.w3.org/2000/svg" viewBox="0 0 116.96 105.52"><defs><style>.cls-1{fill:#a4a3a4;}.cls-2{fill:#2b2b2b;}</style></defs><title>heart_face</title><g id="Layer_2" data-name="Layer 2"><g id="Layer_1-2" data-name="Layer 1"><g id="Group_1518" data-name="Group 1518"><path class="cls-1" d="M100.84,4.35a32.29,32.29,0,0,0-42.36,9.09A32.43,32.43,0,0,0,32.28,0h0A32.32,32.32,0,0,0,0,32.29C0,53.41,54.81,102.92,57.15,105a2,2,0,0,0,1.33.51,2,2,0,0,0,1.34-.51C62.15,102.92,117,53.41,117,32.29A32.37,32.37,0,0,0,100.84,4.35ZM58.48,100.82C54.64,97.29,43.1,86.53,31.69,74.21,8.8,49.49,4,37.77,4,32.29A28.31,28.31,0,0,1,32.28,4h0A28.39,28.39,0,0,1,56.67,18a1.88,1.88,0,0,0,.37.53,2,2,0,0,0,2.37.38,1.94,1.94,0,0,0,.88-.91A28.16,28.16,0,0,1,80.86,4.28L77.51,10a2,2,0,0,0,.39,2.49l7.91,7.13-6.6,7.7a2,2,0,0,0,.22,2.82,2,2,0,0,0,1.3.48,2,2,0,0,0,1.52-.69l7.87-9.19A2,2,0,0,0,89.94,18l-8.16-7.35L85.65,4A28.3,28.3,0,0,1,113,32.29c0,5.48-4.8,17.2-27.69,41.92C73.87,86.53,62.33,97.29,58.48,100.82Z"/><path class="cls-2" d="M48.69,70.76a2.5,2.5,0,0,1-2.41-3.16,12.38,12.38,0,0,1,12.21-8.66,12.38,12.38,0,0,1,12.2,8.67,2.5,2.5,0,0,1-4.83,1.31c-.14-.49-1.62-5-7.37-5a7.39,7.39,0,0,0-7.39,5A2.5,2.5,0,0,1,48.69,70.76Z"/><path class="cls-2" d="M42.43,47.23a12.37,12.37,0,0,1-12.2-8.66,2.5,2.5,0,1,1,4.82-1.31c.14.49,1.62,5,7.38,5a7.4,7.4,0,0,0,7.39-5,2.5,2.5,0,1,1,4.82,1.32A12.38,12.38,0,0,1,42.43,47.23Z"/><path class="cls-2" d="M74.52,47.23a12.37,12.37,0,0,1-12.2-8.66,2.5,2.5,0,1,1,4.82-1.31c.14.49,1.62,5,7.38,5a7.4,7.4,0,0,0,7.39-5,2.5,2.5,0,1,1,4.82,1.32A12.38,12.38,0,0,1,74.52,47.23Z"/></g></g></g></svg>