<svg xmlns="http://www.w3.org/2000/svg" viewBox="0 0 20 20"><defs><style>.cls-1{fill:#2b2b2b;}</style></defs><title>gear</title><g id="Layer_2" data-name="Layer 2"><g id="Layer_1-2" data-name="Layer 1"><path id="Path_42" data-name="Path 42" class="cls-1" d="M19.88,8.59a.4.4,0,0,0-.35-.34L18,8.1a.5.5,0,0,1-.4-.34A8,8,0,0,0,17,6.19a.51.51,0,0,1,0-.53L18,4.5A.4.4,0,0,0,18,4a9.29,9.29,0,0,0-.91-1.08A8.53,8.53,0,0,0,16,2a.4.4,0,0,0-.49,0L14.33,3a.49.49,0,0,1-.52,0,8.08,8.08,0,0,0-1.58-.65.52.52,0,0,1-.34-.4L11.74.48a.4.4,0,0,0-.33-.36,8.34,8.34,0,0,0-2.82,0,.41.41,0,0,0-.34.36L8.1,2a.51.51,0,0,1-.34.4A8,8,0,0,0,6.19,3a.49.49,0,0,1-.52,0L4.5,2A.41.41,0,0,0,4,2,8.4,8.4,0,0,0,2,4a.39.39,0,0,0,0,.48L3,5.66a.53.53,0,0,1,0,.53,7.46,7.46,0,0,0-.66,1.57A.5.5,0,0,1,2,8.1L.47,8.25a.4.4,0,0,0-.35.34A8.21,8.21,0,0,0,0,10a8.39,8.39,0,0,0,.12,1.41.4.4,0,0,0,.35.33L2,11.89a.5.5,0,0,1,.4.34A8.08,8.08,0,0,0,3,13.81a.49.49,0,0,1,0,.52L2,15.5A.39.39,0,0,0,2,16a8.3,8.3,0,0,0,2,2,.41.41,0,0,0,.49,0l1.17-1A.51.51,0,0,1,6.19,17a7.54,7.54,0,0,0,1.58.66.49.49,0,0,1,.33.4l.16,1.51a.38.38,0,0,0,.33.35A9.6,9.6,0,0,0,10,20a9.6,9.6,0,0,0,1.41-.13.37.37,0,0,0,.33-.35L11.9,18a.5.5,0,0,1,.33-.4A7.51,7.51,0,0,0,13.81,17a.51.51,0,0,1,.52,0l1.17,1a.5.5,0,0,0,.26.08A.39.39,0,0,0,16,18a9.45,9.45,0,0,0,1.08-.91A8.62,8.62,0,0,0,18,16a.39.39,0,0,0,0-.48l-1-1.17a.51.51,0,0,1,0-.53,8,8,0,0,0,.65-1.57.5.5,0,0,1,.4-.34l1.51-.15a.4.4,0,0,0,.35-.34,8.29,8.29,0,0,0,0-2.81ZM10,14.6A4.61,4.61,0,1,1,14.61,10h0A4.6,4.6,0,0,1,10,14.6Z"/></g></g></svg>