<svg xmlns="http://www.w3.org/2000/svg" viewBox="0 0 114.39 184.94"><defs><style>.cls-1{fill:#bcbec0;}</style></defs><title>w7SW6e</title><g id="Layer_2" data-name="Layer 2"><g id="Layer_1-2" data-name="Layer 1"><g id="w7SW6e"><path class="cls-1" d="M71.66,104.71l-1.94,2.87v1.66l2,1.27-.33.62a11.61,11.61,0,0,0,3.5-.56,2,2,0,0,1,2.89.72c-.79,1.82-1.58,3.7-4.18,3.6a4.49,4.49,0,0,0,.55,3.77,91,91,0,0,1,5.39,12.88A17,17,0,0,0,82.63,137c.76.94-.15,3,2,2.93.63,1.12,1.25,2.25,1.87,3.38s1.33,2.21,1.85,3.39c.81,1.8,1.49,3.66,2.42,6a21.24,21.24,0,0,0,3.84,11.93c0,1.18-.1,2.81,0,4.42a22.37,22.37,0,0,0,.76,4.22,16.91,16.91,0,0,0,1.55,3.88c2.22,3.78,2.26,3.75,2,7.8h-6.2c-.46-.36-1.1-.9-1.77-1.4-.27-.2-.7-.23-.88-.47a2.17,2.17,0,0,1-.58-1.25c.24-3.14-3.59-5.06-2.35-8.44A7.83,7.83,0,0,1,84,166.71a4.67,4.67,0,0,0-.65-1.61c-2.09-4.81-4.26-9.57-6.6-14.26a30.45,30.45,0,0,0-3.7-6.06c-1.5-1.83-2.78-3.88-4.33-5.73a45.2,45.2,0,0,1-5.43-7.55,35.43,35.43,0,0,0-3-4.1l-4.63,2.39c-5,1-8.28-1.76-11.36-5.33-1.16,1.42-2.16,2.83-3.35,4.06s-2.81,2-3.71,3.33c-1.94,2.89-4.79,5-6.32,8.31A23.86,23.86,0,0,1,25.6,147c-1.12,1.08-.89,2.52-1.81,3.45a8.43,8.43,0,0,0-1.95,3.36c-.77,2.3-2.4,4.24-2.92,6.73-.17.83-1.34,1.45-1.92,2-.78,2.86-.67,5.81-2.76,8.12a5,5,0,0,0-1.17,2.87c-.12,1.94-1.19,2.81-3,3.36v2.36L7.33,182l-5.64.89c-1.85-1-1.95-2.63-1.39-3.51.76-1.2.65-2.71,1.93-3.82A8.85,8.85,0,0,0,4.6,171c.31-1.31,1.37-2.75.16-4.3-.37-.47-.06-1.47-.06-2.22a18.93,18.93,0,0,0,3.13-6.27c1.56-5.35,2.93-10.86,6.32-15.5.7-.94,1.07-2.2,1.92-3,2.22-2,3.29-4.58,4.52-7.15a19.33,19.33,0,0,0,.78-2c1.65-4.73,3.3-9.58,6.13-13.65,2.32-3.32,3.62-7.3,6.62-10.14.13-.12,0-.49,0-.83l-1.06-.44-.72,1.55H30.41a22.85,22.85,0,0,1,2.44-11.07c1.1-2.31,2.12-4.66,3.22-7,.73-1.54-.1-3.42,1.11-4.83l.76-.86c0-3.36-.1-6.76,0-10.15.07-1.82-.6-3.69.47-5.46.88-1.48-.5-3.46,1-4.9a1.08,1.08,0,0,0,0-1.07c-1-.91-.72-2-.72-3.12,0-3.65-.62-7.43.14-10.91,1-4.62.3-9.15.55-13.7.09-1.64-.56-3.29-.8-4.95-.63-4.33-.83-4.29.09-8.46.08-.36-.11-.8,0-1.12.43-.95-1.05-1.65-.12-2.86.55-.71.15-2.19.09-3.32-.08-1.46-.37-2.91-.35-4.37a41.16,41.16,0,0,1,.54-4.33l3.26-2.31,1.69.93L44.07.11,45.15,0c.13.26.32.47.33.68,0,1.77,0,3.53,0,5.29a6.44,6.44,0,0,1-1,4.48c-.15.2-.47.39-.46.56.3,3.69-.53,7.4.5,11.1a35.56,35.56,0,0,1,1,7.15c.17,2.55-.18,5.13.77,7.62s.83,5,.78,7.61c0,1.89,0,3.78,0,4.9l3.41,7.35c.42-.59,1.06-1.07,1.08-1.57.12-3.45,1.1-6.36,4.51-7.89,1-.43.42-2.3,2.14-2,.6.09,1.28-.59,2-.67a28.56,28.56,0,0,1,3.19,0c.93,1.23,2.14,2.18,2.43,3.36a4.72,4.72,0,0,0,1.64,3,15.21,15.21,0,0,1-3.73,11.54v3.14l7.55,5.83c0,1.5-.37,3.34.07,5,1.23,4.54.42,9.13.68,13.68a9.5,9.5,0,0,1-.08,1.21h-2V95l2.68,2.22,2.12-3,1.58.81c1.62-1.16,3.44-2.41,5.21-3.73,3.18-2.38,6.2-5,9.53-7.14,2.51-1.61,4.43-4,7.28-5.18,1.39-.57.6-2.48,1.6-3.47.23-.24,0-.91.52-1.61L101.62,76c.32-1.5,1.25-1.73,1.88-2.31,1-.92,1.36,1.12,2.18.18l.49-1.24,1.52.81.82-1.67.89.78.52-1.51,4.47,2.5-1.13,2.63h-4l-3.6,4.64h-4.28c-1.69,1.27-3.16,2.34-4.59,3.47s-2.82,2.3-4.23,3.46L88.34,91.2l-4.22,3.47-4,3.31c1.06,1.18.61,2.66.37,4a39.19,39.19,0,0,1-1.34,4.54l-4-1.41-.69.61-.78-1.64-.56,1.56Z"/></g></g></g></svg>