<svg xmlns="http://www.w3.org/2000/svg" viewBox="0 0 177.41 99.69"><defs><style>.cls-1{fill:#fff;}.cls-2{fill:#5daade;}</style></defs><title>Asset 2</title><g id="Layer_2" data-name="Layer 2"><g id="Layer_1-2" data-name="Layer 1"><path class="cls-1" d="M25.41,56.86a31.39,31.39,0,0,1-11-1.74,22.23,22.23,0,0,1-7.8-4.79A19.07,19.07,0,0,1,2,43.14,25.57,25.57,0,0,1,.47,34.21V1.52h18.1V32.23a9,9,0,0,0,1.86,6.05,6.59,6.59,0,0,0,5.28,2.16A6.61,6.61,0,0,0,31,38.28a9,9,0,0,0,1.86-6.05V1.52h18V34.21a24.11,24.11,0,0,1-1.64,8.93,20,20,0,0,1-4.82,7.19,22.91,22.91,0,0,1-8,4.79A32.1,32.1,0,0,1,25.41,56.86Z"/><path class="cls-1" d="M71.94,24.94l.84,30.4H55.9V1.52H79.57l9.74,29h.38l8.45-29h24.43V55.34H104.94l.53-30.25L105,25,95,55.34H82.2l-9.88-30.4Z"/><path class="cls-1" d="M155.1,56.71a34.26,34.26,0,0,1-11.82-2,27.51,27.51,0,0,1-9.43-5.66,26.21,26.21,0,0,1-6.27-8.93,29.09,29.09,0,0,1-2.28-11.71,29.09,29.09,0,0,1,2.28-11.71,27.1,27.1,0,0,1,6.23-9A27.83,27.83,0,0,1,143.09,2a32,32,0,0,1,11.4-2,34.87,34.87,0,0,1,12,2.05,24.81,24.81,0,0,1,9.23,5.63L165.14,20.37a13,13,0,0,0-4-3.15A12.08,12.08,0,0,0,155.56,16a11.15,11.15,0,0,0-8,3.38A12.81,12.81,0,0,0,145,23.34a12.66,12.66,0,0,0-1,5.09,13.89,13.89,0,0,0,2.93,9.16q2.92,3.54,9.39,3.54a16,16,0,0,0,2.35-.19,6,6,0,0,0,1.9-.57V36.26h-8.66V22.05h24.7V51.47a28.28,28.28,0,0,1-4.37,2.09A44.7,44.7,0,0,1,167,55.19a55.63,55.63,0,0,1-5.82,1.1A44.27,44.27,0,0,1,155.1,56.71Z"/><path class="cls-2" d="M0,84.94a15.09,15.09,0,0,1,1.18-6.08,14,14,0,0,1,3.24-4.65,14.22,14.22,0,0,1,4.83-3,16.72,16.72,0,0,1,5.94-1,17.73,17.73,0,0,1,6.12,1,13.94,13.94,0,0,1,4.81,2.82L20.36,81a5.18,5.18,0,0,0-2-1.56,6.46,6.46,0,0,0-2.65-.53,5.83,5.83,0,0,0-2.21.42,5,5,0,0,0-1.79,1.2,5.83,5.83,0,0,0-1.21,1.91,6.92,6.92,0,0,0-.43,2.51,6.35,6.35,0,0,0,.45,2.46,6.13,6.13,0,0,0,1.23,1.88,5.18,5.18,0,0,0,1.79,1.2,5.7,5.7,0,0,0,2.17.42,5.59,5.59,0,0,0,2.79-.67,6.09,6.09,0,0,0,1.83-1.58l5.76,6.9a13.85,13.85,0,0,1-4.66,3,16.49,16.49,0,0,1-6.27,1.12,16.51,16.51,0,0,1-5.94-1.06,14.47,14.47,0,0,1-4.83-3A14.2,14.2,0,0,1,1.18,91,14.87,14.87,0,0,1,0,84.94Z"/><path class="cls-2" d="M28.78,71H48v7.81H37.62v2.41h9.74v7.3H37.62v2.6h11v7.82H28.78Z"/><path class="cls-2" d="M53.18,71h9.35l8,14.17h.16L70.27,71h8.91V98.91H69.59L61.86,85.57H61.7l.4,13.34H53.18Z"/><path class="cls-2" d="M93.43,98.91H84V67H0V59H177.41V67h-84Z"/><path class="cls-2" d="M98.05,71h12a20.21,20.21,0,0,1,4.09.42,10.23,10.23,0,0,1,3.63,1.46,7.92,7.92,0,0,1,2.58,2.8,8.84,8.84,0,0,1,1,4.4,7.91,7.91,0,0,1-4.88,7.53l7.09,11.33H112.79l-5.35-10h-.28v10H98.05Zm9,11.8h1.84a8,8,0,0,0,1-.08,3.21,3.21,0,0,0,1.06-.34,2.24,2.24,0,0,0,.82-.71,2,2,0,0,0,.33-1.2,2.22,2.22,0,0,0-.27-1.18,1.74,1.74,0,0,0-.7-.65,2.7,2.7,0,0,0-.94-.28,8.18,8.18,0,0,0-.94-.06h-2.23Z"/><path class="cls-2" d="M135.56,71h10l10.89,27.94H146.21l-1.46-4.11h-8.88l-1.38,4.11h-9.94Zm4.85,9.75-2.29,6.9h4.54Z"/><path class="cls-2" d="M158.67,71h9.47V90.82h9.27v8.09H158.67Z"/></g></g></svg>