<svg xmlns="http://www.w3.org/2000/svg" width="128.012" height="128.006" viewBox="0 0 128.012 128.006"><g transform="translate(0.006 0.006)"><path d="M64,41a2,2,0,0,0,2-2V15.74a8,8,0,1,0-4,0V39A2,2,0,0,0,64,41Z"/><path d="M47,28a6,6,0,0,0,4,5.65V39a2,2,0,0,0,4,0V33.65A6,6,0,1,0,47,28Zm6-2a2,2,0,1,1-2,2A2,2,0,0,1,53,26Z"/><path d="M75,22a6,6,0,0,0-2,11.65V39a2,2,0,0,0,4,0V33.65A6,6,0,0,0,75,22Zm0,8a2,2,0,1,1,2-2A2,2,0,0,1,75,30Z"/><path d="M64,128a8,8,0,0,0,2-15.74V89a2,2,0,0,0-4,0v23.26A8,8,0,0,0,64,128Z"/><path d="M53,108a6,6,0,0,0,2-11.66A1.94,1.94,0,0,0,55,96V89a2,2,0,0,0-4,0v7a1.94,1.94,0,0,0,0,.34A6,6,0,0,0,53,108Zm0-8a2,2,0,1,1-2,2A2,2,0,0,1,53,100Z"/><path d="M81,102a6,6,0,0,0-4-5.66A1.94,1.94,0,0,0,77,96V89a2,2,0,0,0-4,0v7a1.94,1.94,0,0,0,0,.34A6,6,0,1,0,81,102Zm-8,0a2,2,0,1,1,2,2A2,2,0,0,1,73,102Z"/><path d="M32,18a8,8,0,1,0-10,7.74V34.6a2,2,0,0,0,.66,1.49l8.21,7.4a2,2,0,0,0,1.34.51H45a2,2,0,0,0,0-4H33l-7-6.29v-8A8,8,0,0,0,32,18Zm-8,4a4,4,0,1,1,4-4A4,4,0,0,1,24,22Z"/><path d="M33,88H46a2,2,0,0,0,0-4H32.21a2,2,0,0,0-1.34.51l-8.21,7.4A2,2,0,0,0,22,93.4v8.87a8,8,0,1,0,4,0v-8Zm-5,22a4,4,0,1,1-4-4A4,4,0,0,1,28,110Z"/><path d="M95,40H82a2,2,0,0,0,0,4H95.79a2,2,0,0,0,1.34-.51l8.21-7.4A2,2,0,0,0,106,34.6V25.74a8,8,0,1,0-4,0v8Zm5-22a4,4,0,1,1,4,4A4,4,0,0,1,100,18Z"/><path d="M96,110a8,8,0,1,0,10-7.74V93.4a2,2,0,0,0-.66-1.49l-8.21-7.4A2,2,0,0,0,95.79,84H82a2,2,0,0,0,0,4H95l7,6.29v8A8,8,0,0,0,96,110Zm8-4a4,4,0,1,1-4,4A4,4,0,0,1,104,106Z"/><path d="M120,56a8,8,0,0,0-7.74,6H89a2,2,0,0,0,0,4h23.26A8,8,0,1,0,120,56Z"/><path d="M101,47a6,6,0,0,0-5.65,4H89a2,2,0,0,0,0,4h6.35A6,6,0,1,0,101,47Zm0,8a2,2,0,1,1,2-2A2,2,0,0,1,101,55Z"/><path d="M101,69a6,6,0,0,0-5.65,4H89a2,2,0,0,0,0,4h6.35A6,6,0,1,0,101,69Zm0,8a2,2,0,1,1,2-2A2,2,0,0,1,101,77Z"/><path d="M8,72a8,8,0,0,0,7.74-6H39a2,2,0,0,0,0-4H15.74A8,8,0,1,0,8,72Z"/><path d="M27,81a6,6,0,0,0,5.65-4H39a2,2,0,0,0,0-4H32.65A6,6,0,1,0,27,81Zm0-8a2,2,0,1,1-2,2A2,2,0,0,1,27,73Z"/><path d="M27,59a6,6,0,0,0,5.65-4H39a2,2,0,0,0,0-4H32.65A6,6,0,1,0,27,59Zm0-8a2,2,0,1,1-2,2A2,2,0,0,1,27,51Z"/><path d="M45,64A19,19,0,1,0,64,45,19,19,0,0,0,45,64Zm27-2a2,2,0,1,1-2,2A2,2,0,0,1,72,62Zm-8.69-6.22a2,2,0,1,1,2,2.32h-.32a2,2,0,0,1-1.68-2.32ZM63.68,70a2,2,0,1,1-.11,4h-.1a2,2,0,0,1,.21-4Zm-9.62-7.06a2,2,0,1,1,2,2.22h-.22a2,2,0,0,1-1.78-2.23Z"/></g></svg>