<svg xmlns="http://www.w3.org/2000/svg" width="103.477" height="103.477" viewBox="0 0 103.477 103.477"><g transform="translate(19199.93 12603)"><path d="M104.476,98.268a2.07,2.07,0,0,1-2.07,2.07H89.99v2.07a2.07,2.07,0,1,1-4.139,0v-2.07H73.433v2.07a2.07,2.07,0,0,1-4.139,0v-2.07H56.877v2.07a2.07,2.07,0,1,1-4.139,0v-2.07H40.321v2.07a2.07,2.07,0,1,1-4.139,0v-2.07H23.765v2.07a2.07,2.07,0,1,1-4.139,0v-2.07H9.278v2.07a2.07,2.07,0,1,1-4.139,0v-2.07H3.07a2.07,2.07,0,0,1,0-4.139h2.07V87.92H3.07a2.07,2.07,0,0,1,0-4.139h2.07V71.364H3.07a2.07,2.07,0,0,1,0-4.139h2.07V52.738H3.07a2.07,2.07,0,0,1,0-4.139h2.07V34.112H3.07a2.07,2.07,0,0,1,0-4.139h2.07V17.556H3.07a2.07,2.07,0,1,1,0-4.139h2.07V3.07a2.07,2.07,0,1,1,4.139,0V70.722l7.574-7.1a2.07,2.07,0,0,1,2.07-.476L27.9,65.8,37.9,46.9a2.07,2.07,0,0,1,2.835-.849l8.485,4.739,11.8-8.9a2.07,2.07,0,0,1,1.9-.31l8.03,2.69,7.74-13.617a2.07,2.07,0,0,1,1.9-1.035l6.519.352,6.209-6.209H92.059a2.07,2.07,0,1,1,0-4.139h6.209a2.07,2.07,0,0,1,2.07,2.07V27.9a2.07,2.07,0,0,1-4.139,0V26.683l-6.809,6.809a2.069,2.069,0,0,1-1.469.621l-6.209-.29-7.947,13.99a2.07,2.07,0,0,1-2.463.931l-8.63-2.9-12,9.065a2.07,2.07,0,0,1-2.256.145l-7.844-4.387L30.76,69.294a2.07,2.07,0,0,1-2.421,1.014l-9.52-2.856-9.541,8.94V96.2H19.626V77.572a2.07,2.07,0,1,1,4.139,0V96.2H36.182v-26.9a2.07,2.07,0,1,1,4.139,0V96.2H52.738V61.016a2.07,2.07,0,0,1,4.139,0V96.2H69.294V54.808a2.07,2.07,0,0,1,4.139,0V96.2H85.851V40.321a2.07,2.07,0,1,1,4.139,0V96.2h12.417A2.07,2.07,0,0,1,104.476,98.268Z" transform="translate(-19200.93 -12604)"/></g></svg>