<svg xmlns="http://www.w3.org/2000/svg" viewBox="0 0 145.41 78.55"><defs><style>.cls-1{fill:#5daade;}</style></defs><title>Asset 8</title><g id="Layer_2" data-name="Layer 2"><g id="Layer_1-2" data-name="Layer 1"><path class="cls-1" d="M5,14.09a55.15,55.15,0,0,1-.48-8A3.75,3.75,0,0,1,5.66,3.27,4.07,4.07,0,0,1,8.14,1.88c.95-.07,1.57.46,1.84,1.6.18.63.41,1.37.68,2.21s.53,1.72.78,2.65c.25-.34.65-.94,1.19-1.8s1-1.63,1.53-2.31A15.53,15.53,0,0,1,17.22.76,3.75,3.75,0,0,1,19.45.47a2.61,2.61,0,0,1,1.36.7,1.72,1.72,0,0,1,.32,1.39C21.08,4,20,6.23,17.87,9.29a25.74,25.74,0,0,0-1.52,2.45c-.51.93-1.1,2-1.77,3.11s-1.3,2.29-1.92,3.42a47.21,47.21,0,0,0-3.29,7.31s.11,0,.27.15a2.31,2.31,0,0,1,.44.63,1.35,1.35,0,0,1-.1,1.7A6.13,6.13,0,0,1,5.93,30a6.12,6.12,0,0,1-3.81-.81q-1.59-.91-1-2.28H1a28.44,28.44,0,0,1,1.7-3.65c.63-1.15,1.29-2.33,2-3.56l1.53-2.72c-.39.09-.7-.18-1-.81A6.41,6.41,0,0,1,5,14.09Z"/><path class="cls-1" d="M22.32,12.45a2,2,0,0,1,1.77-.23,2.73,2.73,0,0,0,.41,0,2.76,2.76,0,0,1,2.58-1.6c.32,0,.76-.08,1.33-.17a6.32,6.32,0,0,1,2.05.07,6.93,6.93,0,0,1,2.13.71A4.48,4.48,0,0,1,35,14.39a11.63,11.63,0,0,1-.24,6.53A12.69,12.69,0,0,1,31,27.18a5.69,5.69,0,0,1-2.59,1.37,14.08,14.08,0,0,1-2.45.33c-.72,0-1.39,0-2,0a10.08,10.08,0,0,1-1.75-.18,5.3,5.3,0,0,1-3-1.74c-.93-1-1.33-2.6-1.19-4.76a15.86,15.86,0,0,1,1.44-5.76A9.35,9.35,0,0,1,22.32,12.45Zm6,6.84a4.63,4.63,0,0,1-1.59.24,5.08,5.08,0,0,0-.67.8,3.49,3.49,0,0,1-.76.78c-.32.23-.48.33-.48.29a9.37,9.37,0,0,0-.95,1.68,2.14,2.14,0,0,0,0,1.75,5.29,5.29,0,0,0,2-.07A2.74,2.74,0,0,0,27.06,24a4,4,0,0,0,.87-1.36A6.36,6.36,0,0,0,28.3,19.29Z"/><path class="cls-1" d="M39.79,12.05a3.87,3.87,0,0,1,4.2-.82,2.61,2.61,0,0,1,1.33,1.31,2.36,2.36,0,0,1-.12,2.06,15.58,15.58,0,0,0-1.84,3.67c-.45,1.31-.87,2.64-1.25,4a15.37,15.37,0,0,0,5.23-5.89c.41-.77.85-1.55,1.33-2.34l.51-.95,1-1.64a1.18,1.18,0,0,1,.71-.83A3.31,3.31,0,0,1,52,10.41l1.21,0a1.88,1.88,0,0,0,1.12-.32,1.73,1.73,0,0,1,1.2-.26,2.86,2.86,0,0,1,1.26.46,2.51,2.51,0,0,1,.85.9,1.1,1.1,0,0,1,.05,1A98.31,98.31,0,0,0,53.8,23.64c-.38,1.25-.74,2.29-1.09,3.13a4.18,4.18,0,0,1-2.14,1.43,5.9,5.9,0,0,1-2.43.22,3.31,3.31,0,0,1-1.82-.78,1.33,1.33,0,0,1-.3-1.59,18,18,0,0,1-2,1.43,6.08,6.08,0,0,1-2.46.85,7.12,7.12,0,0,1-2.77-.12A4.7,4.7,0,0,1,36.55,27a3.5,3.5,0,0,1-1-2.45Q35.35,19.15,39.79,12.05Z"/><path class="cls-1" d="M71.31,12.18a1.38,1.38,0,0,1,.82-1,3.43,3.43,0,0,1,1.66-.41,3.93,3.93,0,0,1,1.79.43,2.2,2.2,0,0,1,1.17,1.44c1.93-1.68,3.69-2.32,5.27-1.94a2.34,2.34,0,0,1,1.4.95,8.27,8.27,0,0,1,3.84-2.17,4.58,4.58,0,0,1,3.81,1.22l.34.38a3.46,3.46,0,0,1,.54.68c.41.63.52,2.09.34,4.38A45,45,0,0,1,90.59,25c-.48,1.52-.91,2.31-1.29,2.35a1.34,1.34,0,0,1-.63,0,3.78,3.78,0,0,0-.51-.08c-.15,0-.23.11-.26.39a2.43,2.43,0,0,1-2.07.88,3.31,3.31,0,0,1-2.31-.85,1.9,1.9,0,0,1-.73-2.09c.21-.8.46-1.63.73-2.48s.56-1.73.88-2.64c.55-1.58,1.15-3.24,1.8-5a18.62,18.62,0,0,0-1.93,3.08q-1.23,2.25-1.53,2.7c-.39.77-.71,1.38-1,1.82a2.88,2.88,0,0,1-1,1.05,3.33,3.33,0,0,1-1.15.49,3.16,3.16,0,0,1-1,0,2.12,2.12,0,0,1-1.6-.95c-.06-.19-.13-.37-.2-.55a3.85,3.85,0,0,1-.17-.75,15.26,15.26,0,0,1,.27-3.43l-.07.1c.28-.27.37-.34.28-.2-.91,1.29-1.45,2.12-1.64,2.48s-.37.77-.57,1.21l-.72,1.53a15.14,15.14,0,0,0-.64,1.54A10.49,10.49,0,0,1,73,27q-1.53,2.66-5.37,2.14a4.45,4.45,0,0,1-1.4-.39.75.75,0,0,1-.47-.86c.18-.91.6-2.42,1.25-4.53,1.3-4.17,2.07-6.85,2.32-8.06.15-.4.3-.82.42-1.25s.26-.81.39-1.13C70.39,12.22,70.79,12,71.31,12.18Zm11.8,8.4v.07C83.16,20.56,83.16,20.54,83.11,20.58Z"/><path class="cls-1" d="M108.24,12.39l.13,0s.07,0,.07,0a1.14,1.14,0,0,1,1.46.51,5,5,0,0,1,.58,1.77,26.35,26.35,0,0,1-.34,4.53c-.52,3.89-.8,6.22-.85,7s-.44,1.34-1.46,1.64a4.21,4.21,0,0,1-2.65,0c-.93-.31-1.32-.8-1.16-1.46a2.42,2.42,0,0,1-.54.73,6.64,6.64,0,0,1-1.07.61,8.85,8.85,0,0,1-2.27.65,11.93,11.93,0,0,1-2.92.14,7.33,7.33,0,0,1-2.67-.72,3,3,0,0,1-1.61-1.85,11.3,11.3,0,0,1,.2-6.22,10.34,10.34,0,0,1,2.45-4.39,18.69,18.69,0,0,1,4.62-3.6A10,10,0,0,1,104,10.45a3.11,3.11,0,0,1,1.07,0l1,.21a5.51,5.51,0,0,1,1,.3C107.83,11.33,108.24,11.8,108.24,12.39Zm-6.29,9a6.15,6.15,0,0,0,.39-1.19c.1-.48.24-1,.42-1.57a11.25,11.25,0,0,0-4.21,2.76c-1.07,1.2-1,2,.2,2.48a2,2,0,0,0,2.28-.51,4.4,4.4,0,0,0,.54-1,11.62,11.62,0,0,1,.58-1.26Z"/><path class="cls-1" d="M117.79,13.07a3.61,3.61,0,0,1,2.89-.51c1.09.25,1.7.72,1.84,1.42a7.09,7.09,0,0,0,.4-1.29,47.22,47.22,0,0,1,3.37-10.54A4.33,4.33,0,0,1,127.48.59a3.44,3.44,0,0,1,3.37-.27,2.74,2.74,0,0,1,1.12.83,1.21,1.21,0,0,1,.32,1,1,1,0,0,0,.07.71,5.14,5.14,0,0,0,.36.55,1.38,1.38,0,0,1,.44,1.12,46.64,46.64,0,0,1-1.82,5.56q-1.14,2.87-2.33,5.73c-.79,1.9-1.51,3.78-2.16,5.62a24.88,24.88,0,0,0-1.27,5.26,1.61,1.61,0,0,1-.55,1.17,3.76,3.76,0,0,1-1.36.83,4.15,4.15,0,0,1-3.6-.27v-.2c-.23-.07-.39-.12-.5-.14a.37.37,0,0,1-.22-.13,4.1,4.1,0,0,1-.17-1.06,3,3,0,0,1-1.32,1.29,3.81,3.81,0,0,1-1.33.24c-2.2,0-3.76-.4-4.69-1.19a4,4,0,0,1-1.16-3.33,12.53,12.53,0,0,1,1.91-5.78A11.6,11.6,0,0,1,117.79,13.07Zm0,11.15c.72.25,1.22.08,1.49-.51a6.81,6.81,0,0,0,.46-1.16c.15-.47.34-1,.56-1.66l.14-.68a1.46,1.46,0,0,0-1.48-.14,2.63,2.63,0,0,0-1.07,1.05,3.88,3.88,0,0,0-.48,1.6A2.2,2.2,0,0,0,117.76,24.22Z"/><path class="cls-1" d="M141.18,21.94a9,9,0,0,1-1.26.48c-.4.11-.88.22-1.42.34a29.17,29.17,0,0,1-3.1.51q.1.33,1,.81a2.54,2.54,0,0,0,1.35-.18c.48-.2,1-.38,1.52-.55a6.45,6.45,0,0,1,1.57-.29,2,2,0,0,1,1.44.58,1.61,1.61,0,0,0,.45.71.58.58,0,0,0,.3.11.62.62,0,0,1,.31.1,2.21,2.21,0,0,1,.49.78,1.13,1.13,0,0,1-.17,1.29,3.92,3.92,0,0,1-1.51,1.06,12.21,12.21,0,0,1-2.38.71,21.39,21.39,0,0,1-2.72.37,10,10,0,0,1-4.66-.47,4.4,4.4,0,0,1-3-3.1q-.88-3.06,1-7.14A18.14,18.14,0,0,1,133.09,14a9.8,9.8,0,0,1,3.57-2.75,11.14,11.14,0,0,1,4.76-.92,3.82,3.82,0,0,1,3.67,2.31A6.45,6.45,0,0,1,145.3,16a9.94,9.94,0,0,1-1.43,3.94A7.94,7.94,0,0,1,141.18,21.94Zm-2-5.37q-1.8-.37-2.82,2a6.27,6.27,0,0,0-.48,1.36,3,3,0,0,0,2.45-1.29,4.46,4.46,0,0,0,.71-1.18A1.45,1.45,0,0,0,139.21,16.57Z"/><path class="cls-1" d="M5.59,53a1.38,1.38,0,0,1,.82-1,3.43,3.43,0,0,1,1.66-.41A3.93,3.93,0,0,1,9.86,52,2.2,2.2,0,0,1,11,53.39c1.93-1.68,3.68-2.32,5.27-1.94a2.34,2.34,0,0,1,1.4.95,8.27,8.27,0,0,1,3.84-2.17,4.59,4.59,0,0,1,3.81,1.22l.34.38a3.46,3.46,0,0,1,.54.68c.41.63.52,2.09.34,4.38a45.21,45.21,0,0,1-1.7,9q-.72,2.26-1.29,2.34a1.34,1.34,0,0,1-.63,0,2.66,2.66,0,0,0-.51-.08c-.15,0-.23.11-.26.39a2.43,2.43,0,0,1-2.07.88,3.31,3.31,0,0,1-2.31-.85,1.9,1.9,0,0,1-.73-2.09c.21-.8.46-1.63.73-2.48s.56-1.73.88-2.64c.55-1.58,1.15-3.24,1.8-5a18.62,18.62,0,0,0-1.93,3.08q-1.23,2.25-1.53,2.7c-.39.77-.71,1.38-1,1.82a2.88,2.88,0,0,1-1,1,3.54,3.54,0,0,1-1.16.5,3.38,3.38,0,0,1-1,0,2.12,2.12,0,0,1-1.6-1c-.06-.18-.13-.37-.2-.55a3.85,3.85,0,0,1-.17-.75,15.26,15.26,0,0,1,.27-3.43l-.07.1c.28-.27.37-.34.28-.2a28,28,0,0,0-1.64,2.48c-.18.36-.37.77-.57,1.21L8.48,65a15.14,15.14,0,0,0-.64,1.54,10.49,10.49,0,0,1-.58,1.33Q5.73,70.5,1.89,70a4.2,4.2,0,0,1-1.4-.39A.76.76,0,0,1,0,68.72c.18-.9.6-2.41,1.25-4.52,1.3-4.17,2.07-6.85,2.32-8.06.15-.4.3-.82.42-1.25s.26-.81.39-1.13C4.67,53,5.07,52.76,5.59,53Zm11.8,8.4v.07C17.44,61.36,17.44,61.34,17.39,61.38Z"/><path class="cls-1" d="M28.19,57.37A8.56,8.56,0,0,0,28,55.09a2.31,2.31,0,0,1,0-1.48,1.52,1.52,0,0,1,.82-.83,2.54,2.54,0,0,1,1.32-.15,4.36,4.36,0,0,1,1.52.46,4.8,4.8,0,0,1,2.51,2.31A3.79,3.79,0,0,1,34,57.25q-.28,1.11-.66,2.28c-.25.78-.49,1.54-.71,2.28a5,5,0,0,0-.28,1.85A4.78,4.78,0,0,0,33.93,62a21.29,21.29,0,0,0,1.22-2.33c.38-.83.73-1.65,1.06-2.47a12.12,12.12,0,0,1,.95-1.94l.73-1.13a6.94,6.94,0,0,1,.55-.77,6.15,6.15,0,0,1,1.15-1.12c.14-.11.55-.1,1.24,0s1.2.25,1.53.31.55,0,.67-.06l.47-.34a2.72,2.72,0,0,1,2.25,0,1.91,1.91,0,0,1,1.32,1.66.24.24,0,0,0,0,.14l.1,0-.24.21a4.94,4.94,0,0,1-.36.59,2.51,2.51,0,0,1-.49.46q-2.31,2.49-5.3,9.22c-.5,1.11-1,2.1-1.36,3a3.82,3.82,0,0,1,1.39,1.49,2.22,2.22,0,0,1,0,2c-1.88,1.5-2.93,2.9-3.16,4.22A6,6,0,0,1,37.19,77a3.34,3.34,0,0,1-.79,1c-1.23.9-2.67.68-4.32-.68q-1.77-1.77-.17-4.42.4-.72.78-1.5c.36-.77.94-1.91,1.73-3.43a4.58,4.58,0,0,1-5.37-.07c-1.15-.89-1.56-2.89-1.22-6C28.05,59.81,28.17,58.3,28.19,57.37Z"/><path class="cls-1" d="M63.83,53.87a3.61,3.61,0,0,1,2.89-.51c1.09.25,1.7.72,1.84,1.42A7.13,7.13,0,0,0,69,53.49,47.29,47.29,0,0,1,72.33,43a4.44,4.44,0,0,1,1.19-1.56,3.44,3.44,0,0,1,3.37-.27A2.68,2.68,0,0,1,78,42a1.21,1.21,0,0,1,.32,1,1.08,1.08,0,0,0,.07.71,4.31,4.31,0,0,0,.36.55,1.38,1.38,0,0,1,.44,1.12,44.9,44.9,0,0,1-1.82,5.56c-.76,1.91-1.53,3.82-2.33,5.73s-1.51,3.78-2.16,5.62a25.51,25.51,0,0,0-1.27,5.26,1.6,1.6,0,0,1-.54,1.17,3.94,3.94,0,0,1-1.36.83,4.14,4.14,0,0,1-3.61-.27V69l-.49-.14a.32.32,0,0,1-.22-.14,3.18,3.18,0,0,1-.17-1A3.11,3.11,0,0,1,63.9,69a3.76,3.76,0,0,1-1.32.24c-2.2,0-3.77-.4-4.7-1.19a3.94,3.94,0,0,1-1.15-3.33,12.51,12.51,0,0,1,1.9-5.78A11.65,11.65,0,0,1,63.83,53.87ZM63.8,65a1.07,1.07,0,0,0,1.5-.51,6.88,6.88,0,0,0,.45-1.16c.15-.47.34-1,.56-1.66l.14-.68A1.46,1.46,0,0,0,65,60.87a2.6,2.6,0,0,0-1.07,1.06,3.65,3.65,0,0,0-.47,1.59A2.15,2.15,0,0,0,63.8,65Z"/><path class="cls-1" d="M90.93,53.19l.14,0s.07,0,.07,0a1.13,1.13,0,0,1,1.46.5,5,5,0,0,1,.58,1.77,27.24,27.24,0,0,1-.34,4.52C92.31,64,92,66.28,92,67s-.44,1.34-1.46,1.64a4.22,4.22,0,0,1-2.65,0c-.93-.32-1.31-.8-1.15-1.46a2.6,2.6,0,0,1-.55.73,6.21,6.21,0,0,1-1.07.61,8.76,8.76,0,0,1-2.26.65,12,12,0,0,1-2.92.14,7.23,7.23,0,0,1-2.67-.72,3,3,0,0,1-1.62-1.85,11.31,11.31,0,0,1,.21-6.22,10.32,10.32,0,0,1,2.44-4.39,18.55,18.55,0,0,1,4.63-3.6,10,10,0,0,1,3.74-1.26,3.12,3.12,0,0,1,1.07,0l1,.21a4.73,4.73,0,0,1,1,.3C90.52,52.13,90.93,52.6,90.93,53.19Zm-6.29,9A5,5,0,0,0,85,61c.1-.48.25-1,.43-1.57a11.29,11.29,0,0,0-4.22,2.76c-1.06,1.2-1,2,.2,2.48a2,2,0,0,0,2.28-.51,4.06,4.06,0,0,0,.55-1,11.62,11.62,0,0,1,.58-1.26C84.78,62,84.71,62.11,84.64,62.2Z"/><path class="cls-1" d="M94.82,57.37a8.61,8.61,0,0,0-.22-2.28,2.24,2.24,0,0,1,0-1.48,1.52,1.52,0,0,1,.82-.83,2.54,2.54,0,0,1,1.32-.15,4.25,4.25,0,0,1,1.51.46,4.83,4.83,0,0,1,2.52,2.31,4,4,0,0,1-.12,1.85q-.28,1.11-.66,2.28t-.72,2.28A5.18,5.18,0,0,0,99,63.66,4.78,4.78,0,0,0,100.57,62a21.29,21.29,0,0,0,1.22-2.33c.38-.83.73-1.65,1.06-2.47a12.12,12.12,0,0,1,1-1.94l.73-1.13a8.55,8.55,0,0,1,.54-.77,6.22,6.22,0,0,1,1.16-1.12c.14-.11.55-.1,1.24,0s1.2.25,1.53.31.55,0,.66-.06l.48-.34a2.7,2.7,0,0,1,2.24,0,1.9,1.9,0,0,1,1.33,1.66.24.24,0,0,0,0,.14l.1,0-.24.21a4.94,4.94,0,0,1-.36.59,2.85,2.85,0,0,1-.49.46q-2.31,2.49-5.3,9.22c-.5,1.11-1,2.1-1.36,3a3.82,3.82,0,0,1,1.39,1.49,2.22,2.22,0,0,1,0,2c-1.88,1.5-2.94,2.9-3.16,4.22a6.35,6.35,0,0,1-.43,1.73,3.23,3.23,0,0,1-.8,1c-1.22.9-2.66.68-4.31-.68q-1.77-1.77-.17-4.42.4-.72.78-1.5c.36-.77.94-1.91,1.73-3.43a4.58,4.58,0,0,1-5.37-.07c-1.16-.89-1.56-2.89-1.22-6C94.69,59.81,94.81,58.3,94.82,57.37Z"/><path class="cls-1" d="M120.85,68.89A3.34,3.34,0,0,1,119.3,71a5.19,5.19,0,0,1-2.5.74,4.91,4.91,0,0,1-2.46-.51,2.53,2.53,0,0,1-1.43-1.73,2.21,2.21,0,0,1,.38-2,3,3,0,0,1,1.58-1.08A11.83,11.83,0,0,1,117,66a7.21,7.21,0,0,1,2.26.14,2.73,2.73,0,0,1,1.56.88A1.66,1.66,0,0,1,120.85,68.89ZM129,43.26a1.36,1.36,0,0,0,.3.56l.24.22c.11.11.06.32-.17.61a12.89,12.89,0,0,1-.85,1.43,13.6,13.6,0,0,0-1.26,2.14,40.09,40.09,0,0,0-2.17,5.12c-.52,1.55-1,2.95-1.33,4.2s-.71,2.34-1,3.3a7,7,0,0,1-1.43,2.48,2.16,2.16,0,0,1-1.46.92,6,6,0,0,1-2.15.08,4,4,0,0,1-1.85-.7,1.26,1.26,0,0,1-.56-1.42,25.54,25.54,0,0,1,1.14-5.38c.51-1.45,1-2.65,1.33-3.6s.69-1.81,1-2.57.53-1.41.77-2,.51-1.14.83-1.77.67-1.25,1-1.9.75-1.24,1.14-1.79A6.19,6.19,0,0,1,124.69,41a6.44,6.44,0,0,1,1.86-.43,3.68,3.68,0,0,1,1.63.21,1.66,1.66,0,0,1,1,.88A2,2,0,0,1,129,43.26Z"/></g></g></svg>