<svg xmlns="http://www.w3.org/2000/svg" viewBox="0 0 21.6 21.6"><defs><style>.cls-1{fill:#2b2b2b;}.cls-2{fill:#fff;fill-rule:evenodd;}</style></defs><title>default</title><g id="Layer_2" data-name="Layer 2"><g id="Layer_1-2" data-name="Layer 1"><circle class="cls-1" cx="10.8" cy="10.8" r="10.8"/><path class="cls-2" d="M6.33,14.77l1.24-1.31L6.62,11l-.68-.44a.15.15,0,0,1-.07-.15L6.1,8.68a.14.14,0,0,1,.11-.12L8.9,7.9,9.28,6a.13.13,0,0,1,.13-.12l.81-.09a.15.15,0,0,1,.16.13v0l0,.61.45-.24.12-1.45v0H10.8a5.66,5.66,0,0,0-1.17.12,5.37,5.37,0,0,0-1.12.34h0a6,6,0,0,0-1,.55,7.17,7.17,0,0,0-.91.74h0a7.17,7.17,0,0,0-.74.91,6,6,0,0,0-.55,1h0a6,6,0,0,0-.34,1.12,5.76,5.76,0,0,0,0,2.34,6,6,0,0,0,.34,1.12h0a5.65,5.65,0,0,0,.55,1,7.51,7.51,0,0,0,.5.65ZM11.2,4.84a6.48,6.48,0,0,1,.77.1,5.92,5.92,0,0,1,1.11.33h0a5.65,5.65,0,0,1,1,.55,7.17,7.17,0,0,1,.91.74h0l.15.16-1.81-.09h0a.15.15,0,0,0-.12.17l.14.83-.88.89h0a.18.18,0,0,0,0,.1l0,1.1-.88,1.08a.11.11,0,0,0,0,.08.15.15,0,0,0,.13.16l1.17.13a.17.17,0,0,0,.15-.07l.34-.55.61.51h0a.12.12,0,0,0,.09,0h1v0l-1.71.52h0l-1.51.5h0a.12.12,0,0,0-.09.08L10.88,14h0a.14.14,0,0,0,.07.19l2.32,1,0,1.05-.16.07h0a5.37,5.37,0,0,1-1.12.34,5.76,5.76,0,0,1-2.34,0,5.37,5.37,0,0,1-1.12-.34,6,6,0,0,1-1-.55A7.17,7.17,0,0,1,6.57,15l-.05,0L7.84,13.6a.16.16,0,0,0,0-.16l-1-2.59a.11.11,0,0,0-.06-.07h0l-.64-.42.2-1.54,2.69-.66a.14.14,0,0,0,.11-.11h0l.37-1.91.55-.06,0,.7a.13.13,0,0,0,.13.15.12.12,0,0,0,.08,0h0L11,6.52a.13.13,0,0,0,.08-.11h0l.12-1.54v0Zm2.34,11.27a4.88,4.88,0,0,0,.58-.34A7.17,7.17,0,0,0,15,15h0a7.17,7.17,0,0,0,.74-.91,5.65,5.65,0,0,0,.55-1h0A5.92,5.92,0,0,0,16.66,12a5.76,5.76,0,0,0,0-2.34,6,6,0,0,0-.34-1.12,5.65,5.65,0,0,0-.55-1q-.15-.23-.33-.45l-1.92-.09.13.72h0a.16.16,0,0,1,0,.13l-.89.91-.05,1.09a.11.11,0,0,1,0,.08l-.74.92.83.09.38-.6s0,0,0,0a.13.13,0,0,1,.2,0l.7.57h1a.14.14,0,0,1,.14.13l0,.28a.14.14,0,0,1-.1.15l-1.83.56h0l-1.45.48L11.2,14l2.27,1h0a.14.14,0,0,1,.09.13l0,1Zm.74-10.52a6.46,6.46,0,0,1,1,.78h0a6.46,6.46,0,0,1,.78,1,6.23,6.23,0,0,1,.58,1.08,6.69,6.69,0,0,1,.35,1.18,6.26,6.26,0,0,1,0,2.44,5.66,5.66,0,0,1-.35,1.17h0A6.23,6.23,0,0,1,16,14.28a6.46,6.46,0,0,1-.78,1h0a6.46,6.46,0,0,1-1,.78,6,6,0,0,1-.82.46h0l-.25.11h0a6.69,6.69,0,0,1-1.18.35,6.26,6.26,0,0,1-2.44,0,6.69,6.69,0,0,1-1.18-.35A6.23,6.23,0,0,1,7.32,16a6.28,6.28,0,0,1-1.73-1.73A6.23,6.23,0,0,1,5,13.2H5A6.69,6.69,0,0,1,4.66,12a6.26,6.26,0,0,1,0-2.44A6.69,6.69,0,0,1,5,8.4H5a6.23,6.23,0,0,1,.58-1.08,6.46,6.46,0,0,1,.78-1h0a6.46,6.46,0,0,1,1-.78A6.23,6.23,0,0,1,8.4,5h0a6.69,6.69,0,0,1,1.18-.35,6.26,6.26,0,0,1,2.44,0A5.11,5.11,0,0,1,13.19,5h0a6.23,6.23,0,0,1,1.08.58Zm2,7.49a.14.14,0,0,1,.18-.07Z"/></g></g></svg>