<svg xmlns="http://www.w3.org/2000/svg" viewBox="0 0 151.84 118.83"><defs><style>.cls-1{fill:#a4a3a4;}.cls-2{fill:#2b2b2b;}</style></defs><title>browser_face</title><g id="Layer_2" data-name="Layer 2"><g id="Layer_1-2" data-name="Layer 1"><g id="Group_1510" data-name="Group 1510"><path class="cls-1" d="M149.84,0H2A2,2,0,0,0,0,2V116.83a2,2,0,0,0,2,2H149.84a2,2,0,0,0,2-2V2A2,2,0,0,0,149.84,0Zm-2,4v7.68H4V4ZM4,114.83V15.68H147.84v99.15Z"/><g id="Line_19" data-name="Line 19"><path class="cls-1" d="M143,10.07h-88a2,2,0,0,1,0-4h88a2,2,0,0,1,0,4Z"/></g><g id="Ellipse_12" data-name="Ellipse 12"><circle class="cls-1" cx="8.58" cy="8.07" r="2"/></g><g id="Ellipse_13" data-name="Ellipse 13"><circle class="cls-1" cx="13.83" cy="8.07" r="2"/></g><path class="cls-2" d="M64.83,62.7a2,2,0,0,0,1.42.59,2,2,0,0,0,1.41-3.42l-4.58-4.58,4.58-4.59a2,2,0,1,0-2.83-2.83l-4.58,4.59-4.59-4.59a2,2,0,1,0-2.83,2.83l4.59,4.59-4.59,4.58a2,2,0,0,0,0,2.83,2,2,0,0,0,1.42.59,2,2,0,0,0,1.41-.59l4.59-4.59Z"/><path class="cls-2" d="M94.42,55.29,99,50.7a2,2,0,1,0-2.82-2.83l-4.59,4.59L87,47.87a2,2,0,1,0-2.82,2.83l4.58,4.59-4.58,4.58A2,2,0,1,0,87,62.7l4.59-4.59,4.59,4.59A2,2,0,0,0,99,59.87Z"/><path class="cls-2" d="M75.92,74.37A12.4,12.4,0,0,0,63.71,83a2.51,2.51,0,0,0,1.76,3.08,2.53,2.53,0,0,0,3.07-1.76,7.38,7.38,0,0,1,7.38-5c5.76,0,7.24,4.48,7.38,5A2.5,2.5,0,1,0,88.13,83,12.38,12.38,0,0,0,75.92,74.37Z"/></g></g></g></svg>