<svg xmlns="http://www.w3.org/2000/svg" viewBox="0 0 135.89 135.89"><defs><style>.cls-1{fill:#2b2b2b;}.cls-2{fill:#a4a3a4;}.cls-3{isolation:isolate;}</style></defs><title>stop_face</title><g id="Layer_2" data-name="Layer 2"><g id="Layer_1-2" data-name="Layer 1"><g id="Group_1514" data-name="Group 1514"><g id="Line_30" data-name="Line 30"><path class="cls-1" d="M58.15,45.85H45.65a2.5,2.5,0,0,1,0-5h12.5a2.5,2.5,0,0,1,0,5Z"/></g><g id="Line_31" data-name="Line 31"><path class="cls-1" d="M90.24,45.85H77.74a2.5,2.5,0,0,1,0-5h12.5a2.5,2.5,0,0,1,0,5Z"/></g><g id="Path_81" data-name="Path 81"><path class="cls-2" d="M91.86,127.68H44a2,2,0,0,1-1.42-.58L8.79,93.27a2,2,0,0,1-.59-1.41V44a2,2,0,0,1,.59-1.41L42.61,8.79A2,2,0,0,1,44,8.2H91.86a2,2,0,0,1,1.42.59L127.1,42.61a2,2,0,0,1,.59,1.42V91.86a2,2,0,0,1-.59,1.41L93.28,127.1A2,2,0,0,1,91.86,127.68Zm-47-4H91L123.69,91V44.85L91,12.2H44.85L12.2,44.85V91Z"/></g><g id="Path_82" data-name="Path 82"><path class="cls-2" d="M95.26,135.89H40.63a2,2,0,0,1-1.42-.59L.59,96.67A2,2,0,0,1,0,95.26V40.63a2,2,0,0,1,.59-1.42L39.21.59A2,2,0,0,1,40.63,0H95.26a2,2,0,0,1,1.41.59L135.3,39.21a2,2,0,0,1,.59,1.42V95.26a2,2,0,0,1-.59,1.41L96.67,135.3A2,2,0,0,1,95.26,135.89Zm-53.8-4h53l37.46-37.46v-53L94.43,4h-53L4,41.46v53Z"/></g><g id="STOP" class="cls-3"><g class="cls-3"><path class="cls-2" d="M43,72A6.7,6.7,0,0,1,42,75.77a7,7,0,0,1-3.13,2.59A11.63,11.63,0,0,1,34,79.3,11,11,0,0,1,28.36,78a7.57,7.57,0,0,1-2.54-2.46,5.63,5.63,0,0,1-1-3,2,2,0,0,1,2.08-2,1.73,1.73,0,0,1,1.24.47A3.61,3.61,0,0,1,29,72.38,9.28,9.28,0,0,0,30,74.2a3.92,3.92,0,0,0,1.43,1.22,5.45,5.45,0,0,0,2.43.47,5.47,5.47,0,0,0,3.35-1,2.89,2.89,0,0,0,1.29-2.4,2.52,2.52,0,0,0-.7-1.85A4.47,4.47,0,0,0,36,69.6,29.82,29.82,0,0,0,33,68.8a22.23,22.23,0,0,1-4.13-1.35,6.71,6.71,0,0,1-2.64-2.11,5.42,5.42,0,0,1-1-3.32,5.69,5.69,0,0,1,1-3.36,6.54,6.54,0,0,1,3-2.26,12.21,12.21,0,0,1,4.6-.79,11.68,11.68,0,0,1,3.65.52,7.84,7.84,0,0,1,2.55,1.39,5.9,5.9,0,0,1,1.49,1.83A4.17,4.17,0,0,1,42,61.2a2.21,2.21,0,0,1-.58,1.5,1.88,1.88,0,0,1-1.46.66,1.65,1.65,0,0,1-1.21-.4,5.11,5.11,0,0,1-.9-1.3,6,6,0,0,0-1.5-2,4.41,4.41,0,0,0-2.81-.72,4.83,4.83,0,0,0-2.9.79,2.27,2.27,0,0,0-1.1,1.9A1.91,1.91,0,0,0,30,62.78a3.05,3.05,0,0,0,1,.86,6.61,6.61,0,0,0,1.33.56q.67.21,2.22.6a33.33,33.33,0,0,1,3.51,1,10.73,10.73,0,0,1,2.67,1.33,5.52,5.52,0,0,1,1.72,2A6.38,6.38,0,0,1,43,72Z"/><path class="cls-2" d="M61.86,59.83H56.79V76.47a3,3,0,0,1-.64,2.13,2.12,2.12,0,0,1-1.65.7,2.2,2.2,0,0,1-1.68-.7,3.07,3.07,0,0,1-.65-2.13V59.83H47.11a2.58,2.58,0,0,1-1.77-.52,1.8,1.8,0,0,1-.58-1.39,1.72,1.72,0,0,1,.61-1.4A2.57,2.57,0,0,1,47.11,56H61.86a2.62,2.62,0,0,1,1.79.53,1.8,1.8,0,0,1,.58,1.39,1.78,1.78,0,0,1-.59,1.39A2.63,2.63,0,0,1,61.86,59.83Z"/><path class="cls-2" d="M76.64,55.61a12.21,12.21,0,0,1,6.12,1.45,9.3,9.3,0,0,1,3.86,4.11,13.9,13.9,0,0,1,1.32,6.25,15.31,15.31,0,0,1-.72,4.83A10.51,10.51,0,0,1,85.06,76a9.46,9.46,0,0,1-3.53,2.43,13.85,13.85,0,0,1-9.61,0A9.58,9.58,0,0,1,68.37,76a10.57,10.57,0,0,1-2.15-3.8,15.47,15.47,0,0,1-.72-4.8,14.67,14.67,0,0,1,.76-4.84,10.26,10.26,0,0,1,2.19-3.75A9.61,9.61,0,0,1,72,56.43,12.57,12.57,0,0,1,76.64,55.61Zm6.59,11.78A10.8,10.8,0,0,0,82.42,63a6.08,6.08,0,0,0-2.32-2.79,6.39,6.39,0,0,0-3.46-.94,6.21,6.21,0,0,0-2.57.52,5.54,5.54,0,0,0-2,1.53,7.17,7.17,0,0,0-1.35,2.55,11.82,11.82,0,0,0-.49,3.49,12.09,12.09,0,0,0,.49,3.53,7.33,7.33,0,0,0,1.39,2.62,6,6,0,0,0,2.07,1.56A6.53,6.53,0,0,0,80,74.72,6.12,6.12,0,0,0,82.35,72,10.63,10.63,0,0,0,83.23,67.39Z"/><path class="cls-2" d="M100.79,70H96.54v6.48a3,3,0,0,1-.65,2.11,2.15,2.15,0,0,1-1.66.72,2.18,2.18,0,0,1-1.69-.71,3.07,3.07,0,0,1-.64-2.09V58.85a2.88,2.88,0,0,1,.71-2.19A3.18,3.18,0,0,1,94.84,56h6a15.63,15.63,0,0,1,4.07.41,6.19,6.19,0,0,1,2.43,1.29,5.9,5.9,0,0,1,1.55,2.22,7.73,7.73,0,0,1,.53,3,6.53,6.53,0,0,1-2.15,5.3C105.78,69.38,103.64,70,100.79,70Zm-1.12-10.5H96.54v7h3.13a9.27,9.27,0,0,0,2.74-.35A3.16,3.16,0,0,0,104.09,65a3.34,3.34,0,0,0,.58-2,3.5,3.5,0,0,0-.89-2.47C103.11,59.82,101.74,59.49,99.67,59.49Z"/></g></g><path class="cls-1" d="M77.74,101.22a2.51,2.51,0,0,1-2.41-1.85,7.3,7.3,0,0,0-7.38-5,7.39,7.39,0,0,0-7.39,5,2.5,2.5,0,1,1-4.82-1.32A12.38,12.38,0,0,1,68,89.4a12.37,12.37,0,0,1,12.2,8.66,2.51,2.51,0,0,1-2.41,3.16Z"/></g></g></g></svg>