<svg xmlns="http://www.w3.org/2000/svg" viewBox="0 0 112.33 117.4"><defs><style>.cls-1{isolation:isolate;}.cls-2{fill:#2b2b2b;}.cls-3{fill:#a4a3a4;}</style></defs><title>no_notif</title><g id="Layer_2" data-name="Layer 2"><g id="Layer_1-2" data-name="Layer 1"><g id="Group_470" data-name="Group 470"><g id="Z" class="cls-1"><g class="cls-1"><path class="cls-2" d="M95.26,11.87h7.17v2.35H91.6V12.5l7-10.13h-7V0h10.66V1.68Z"/></g></g><g id="Z-2" class="cls-1"><g class="cls-1"><path class="cls-2" d="M106.6,35.34h5.73v1.88h-8.66V35.84l5.62-8.1h-5.61v-1.9h8.53v1.35Z"/></g></g><g id="Group_465" data-name="Group 465"><path id="Path_18" data-name="Path 18" class="cls-2" d="M42.4,65.83c-4.07,0-7.84-2.64-9.84-6.9a2.24,2.24,0,1,1,4-2l.06.11c1.25,2.67,3.47,4.32,5.77,4.32s4.49-1.6,5.77-4.29A2.25,2.25,0,0,1,52.22,59C50.21,63.2,46.45,65.83,42.4,65.83Z"/></g><g id="Group_466" data-name="Group 466"><path id="Path_19" data-name="Path 19" class="cls-2" d="M66.07,65.83c-4.07,0-7.84-2.64-9.84-6.9A2.25,2.25,0,0,1,60.29,57c1.25,2.67,3.47,4.32,5.77,4.32s4.49-1.6,5.77-4.29A2.25,2.25,0,0,1,75.89,59h0C73.88,63.2,70.12,65.83,66.07,65.83Z"/></g><g id="Group_468" data-name="Group 468"><circle id="Ellipse_9" data-name="Ellipse 9" class="cls-2" cx="53.97" cy="84.06" r="3.59"/></g><path class="cls-3" d="M107.12,102.81C89.75,88.59,88.3,69.92,87,53.46,85.58,35,84.2,17.6,58.22,15.91a5.34,5.34,0,0,0,1.15-3.29,5.4,5.4,0,0,0-10.8,0,5.33,5.33,0,0,0,1.16,3.29C23.75,17.6,22.37,35,20.93,53.46,19.65,69.92,18.19,88.59.82,102.81a2.25,2.25,0,0,0,1.43,4H42.69a11.3,11.3,0,0,0,22.56,0H105.7a2.25,2.25,0,0,0,1.42-4ZM8.06,102.3h0C22.79,87.43,24.23,68.93,25.41,53.81,26.93,34.33,28,20.26,54,20.26S81,34.33,82.53,53.81c1.18,15.12,2.63,33.62,17.36,48.49Z"/></g></g></g></svg>