<svg xmlns="http://www.w3.org/2000/svg" viewBox="0 0 20 20"><defs><style>.cls-1{fill:#757576;}.cls-2{fill:none;}</style></defs><title>remove</title><g id="Layer_2" data-name="Layer 2"><g id="Layer_1-2" data-name="Layer 1"><g id="Group_338" data-name="Group 338"><polygon class="cls-1" points="13.93 6.84 13.22 6.13 10.04 9.31 6.86 6.13 6.15 6.84 9.33 10.02 6.15 13.2 6.86 13.91 10.04 10.73 13.22 13.91 13.93 13.2 10.75 10.02 13.93 6.84"/><g id="Ellipse_10" data-name="Ellipse 10"><circle class="cls-2" cx="10" cy="10" r="10"/><path class="cls-1" d="M10,20A10,10,0,1,1,20,10,10,10,0,0,1,10,20ZM10,1a9,9,0,1,0,9,9A9,9,0,0,0,10,1Z"/></g></g></g></g></svg>