<svg xmlns="http://www.w3.org/2000/svg" width="136.65" height="135.402" viewBox="0 0 136.65 135.402"><g transform="translate(19066.336 12580)"><path d="M121.487,84.2V54.882l9.443,9.492,1.985-1.974L121.487,50.912V28.536H97.743a28.261,28.261,0,0,0-56.457,0H17.543V60L8.1,50.5,6.113,52.477l11.429,11.49V84.2a17.743,17.743,0,1,0,14.9,29.179l19.368,6.912a17.73,17.73,0,0,0,35.405,0l19.369-6.911a17.741,17.741,0,1,0,14.9-29.182Zm13.553,17.684a14.812,14.812,0,0,1-1.365,6.2,11.028,11.028,0,0,0-8.108-6.579,6.149,6.149,0,0,0,.8-2.989,6.266,6.266,0,0,0-12.531,0,6.168,6.168,0,0,0,.794,2.983,11.03,11.03,0,0,0-8.133,6.585,14.948,14.948,0,1,1,28.546-6.2Zm-18.406-3.365a3.466,3.466,0,1,1,3.467,3.448A3.461,3.461,0,0,1,116.634,98.516ZM69.514,4.435A25.464,25.464,0,0,1,91.686,42.487,17.048,17.048,0,0,0,77.84,30.1a9.286,9.286,0,0,0,1.075-4.337,9.4,9.4,0,0,0-18.8,0A9.286,9.286,0,0,0,61.188,30.1,17.043,17.043,0,0,0,47.344,42.488,25.464,25.464,0,0,1,69.514,4.435Zm0,51a25.45,25.45,0,0,1-19.8-9.47c.048-6.977,5.959-12.7,13.465-13.3a9.363,9.363,0,0,0,12.678,0c7.506.6,13.418,6.323,13.467,13.3A25.45,25.45,0,0,1,69.514,55.435Zm-6.6-29.67a6.6,6.6,0,0,1,13.2,0,6.5,6.5,0,0,1-1.439,4.048c-.038,0-.077-.006-.115-.006v.144a6.526,6.526,0,0,1-10.094,0v-.143c-.038,0-.076,0-.113.006A6.486,6.486,0,0,1,62.913,25.765ZM18.943,86.926a14.925,14.925,0,0,1,13.591,21.157A11.031,11.031,0,0,0,24.4,101.5a6.164,6.164,0,0,0,.794-2.983,6.264,6.264,0,0,0-12.528,0,6.172,6.172,0,0,0,.8,2.989,11.026,11.026,0,0,0-8.108,6.578A14.925,14.925,0,0,1,18.943,86.926Zm-3.477,11.59a3.465,3.465,0,1,1,3.464,3.448A3.46,3.46,0,0,1,15.466,98.516Zm3.477,18.318a14.924,14.924,0,0,1-11.481-5.388c.137-4.1,3.852-7.391,8.411-7.391v-.119a6.058,6.058,0,0,0,6.138-.015v.134c4.559,0,8.276,3.3,8.411,7.391A14.919,14.919,0,0,1,18.943,116.834Zm1.4-32.636V63.965l11.429-11.49L29.787,50.5,20.342,60V31.336H41.286A28.29,28.29,0,0,0,68.115,58.164V101.6a17.771,17.771,0,0,0-16.242,15.738l-17.735-6.328A17.7,17.7,0,0,0,20.342,84.2Zm49.172,50.04a14.925,14.925,0,0,1-11.481-5.388c.134-4.1,3.851-7.394,8.411-7.394v-.116a6.058,6.058,0,0,0,6.138-.015v.132c4.561,0,8.277,3.3,8.414,7.392A14.931,14.931,0,0,1,69.514,134.238Zm-.014-14.87a3.449,3.449,0,1,1,3.464-3.448A3.46,3.46,0,0,1,69.5,119.368Zm13.606,6.116a11.031,11.031,0,0,0-8.136-6.583,6.152,6.152,0,0,0,.792-2.98,6.264,6.264,0,0,0-12.528,0,6.161,6.161,0,0,0,.8,2.986,11.026,11.026,0,0,0-8.109,6.579,14.954,14.954,0,1,1,27.184,0Zm4.05-8.143A17.771,17.771,0,0,0,70.914,101.6V58.164A28.29,28.29,0,0,0,97.743,31.336h20.945V50.911L107.257,62.4l1.985,1.974,9.446-9.495V84.2a17.7,17.7,0,0,0-13.8,26.814Zm32.932-.507a14.93,14.93,0,0,1-11.481-5.386c.137-4.1,3.852-7.392,8.411-7.392v-.134a6.058,6.058,0,0,0,6.138.015v.119c4.559,0,8.274,3.3,8.411,7.392A14.929,14.929,0,0,1,120.088,116.834Z" transform="translate(-19067.525 -12581.635)"/></g></svg>