<svg xmlns="http://www.w3.org/2000/svg" viewBox="0 0 108.81 128.74"><defs><style>.cls-1{fill:#2b2b2b;}.cls-2{fill:#a4a3a4;}</style></defs><title>lock_face</title><g id="Layer_2" data-name="Layer 2"><g id="Layer_1-2" data-name="Layer 1"><g id="Group_1513" data-name="Group 1513"><g id="Line_24" data-name="Line 24"><path class="cls-1" d="M44.61,88.16H32.11a2.5,2.5,0,0,1,0-5h12.5a2.5,2.5,0,0,1,0,5Z"/></g><g id="Line_25" data-name="Line 25"><path class="cls-1" d="M76.7,88.16H64.2a2.5,2.5,0,0,1,0-5H76.7a2.5,2.5,0,1,1,0,5Z"/></g><path class="cls-2" d="M106.81,61.38h-8v-17a44.38,44.38,0,0,0-88.76,0v17H2a2,2,0,0,0-2,2v63.36a2,2,0,0,0,2,2H106.81a2,2,0,0,0,2-2V63.38A2,2,0,0,0,106.81,61.38ZM14,44.38a40.38,40.38,0,0,1,80.76,0v17H85.12V44.15a30.72,30.72,0,0,0-61.43,0V61.38H14Zm67.09,17H27.69V44.15a26.72,26.72,0,0,1,53.43,0Zm23.69,63.36H4v-4.9H25.69a2,2,0,0,0,0-4H4V111h9.85a2,2,0,0,0,0-4H4V65.38H104.81Z"/><path class="cls-1" d="M44.61,113.8a2.53,2.53,0,0,1-.66-.08,2.51,2.51,0,0,1-1.75-3.07A12.38,12.38,0,0,1,54.41,102a12.36,12.36,0,0,1,12.2,8.66A2.5,2.5,0,1,1,61.79,112c-.14-.49-1.62-5-7.38-5A7.4,7.4,0,0,0,47,112,2.5,2.5,0,0,1,44.61,113.8Z"/></g></g></g></svg>