<svg xmlns="http://www.w3.org/2000/svg" viewBox="0 0 12.15 11.73"><defs><style>.cls-1{fill:#4baff8;}</style></defs><title>liked</title><g id="Layer_2" data-name="Layer 2"><g id="Layer_1-2" data-name="Layer 1"><g id="Layer_2-2" data-name="Layer 2"><g id="Layer_1-2-2" data-name="Layer 1-2"><path class="cls-1" d="M11.9,4.63a1.9,1.9,0,0,0-1.1-.7H8.1V1.63A1.27,1.27,0,0,0,7.6.53,2.16,2.16,0,0,0,5.9,0a.79.79,0,0,0-.8.8c.2,2.8-1.1,3.7-1.8,4H3.1a.91.91,0,0,0-.7-.3H1.1a1,1,0,0,0-1.1,1v5.1a1.14,1.14,0,0,0,.3.8,1.14,1.14,0,0,0,.8.3H2.3a.91.91,0,0,0,.8-.4,1.5,1.5,0,0,0,1.1.4h5a2,2,0,0,0,1.6-.7,1.16,1.16,0,0,0,.2-1l.2-.4a1.08,1.08,0,0,0,0-1.1l.3-.4a.75.75,0,0,0,.1-.8l-.1-.6.2-.2a.86.86,0,0,0,.3-.6A1.19,1.19,0,0,0,11.9,4.63Z"/></g></g></g></g></svg>