<svg xmlns="http://www.w3.org/2000/svg" viewBox="0 0 12.21 11.72"><defs><style>.cls-1{fill:#757576;}</style></defs><title>likes</title><g id="Layer_2" data-name="Layer 2"><g id="Layer_1-2" data-name="Layer 1"><path class="cls-1" d="M11.86,4.55a1.74,1.74,0,0,0-1.11-.72.68.68,0,0,0-.25-.05H8.09V1.61A1.49,1.49,0,0,0,7.64.48,2.4,2.4,0,0,0,5.87,0a.78.78,0,0,0-.72.83C5.29,3.58,4,4.47,3.26,4.75l-.12.07a1.11,1.11,0,0,0-.78-.33H1.12A1.09,1.09,0,0,0,0,5.51v5.06a1.14,1.14,0,0,0,.32.8,1.11,1.11,0,0,0,.79.33H2.35a1.13,1.13,0,0,0,.84-.39,1.91,1.91,0,0,0,1.14.41h5A2,2,0,0,0,10.93,11a1.15,1.15,0,0,0,.24-1l.21-.38a1.21,1.21,0,0,0,0-1.11l.28-.44a1,1,0,0,0,.15-.82l-.1-.55.18-.19a1.07,1.07,0,0,0,.3-.6A1.83,1.83,0,0,0,11.86,4.55ZM1,10.58v-5a.12.12,0,0,1,.12-.12H2.35a.12.12,0,0,1,.12.12v5a.12.12,0,0,1-.12.12H1.11C1,10.7,1,10.58,1,10.58Zm9.5-5.79a.87.87,0,0,1,.55.34.9.9,0,0,1,.13.7L11,6a1.09,1.09,0,0,0-.27,1l.1.54L10.53,8a1.21,1.21,0,0,0,0,1.13l-.22.41a1.2,1.2,0,0,0-.09.75.93.93,0,0,1-.82.41h-5a.89.89,0,0,1-.63-.27,1,1,0,0,1-.24-.61v-4a.23.23,0,0,1,.13-.18C4.41,5.39,6.25,4.35,6.16,1a1.21,1.21,0,0,1,.8.22.47.47,0,0,1,.13.39V4a.77.77,0,0,0,.24.53.92.92,0,0,0,.53.22H10.5Z"/></g></g></svg>